<svg xmlns="http://www.w3.org/2000/svg" xmlns:xlink="http://www.w3.org/1999/xlink" version="1.1" x="0px" y="0px"
     viewBox="0 0 100 100" enable-background="new 0 0 100 100" xml:space="preserve"><path d="M67,62c0,0.6-0.4,1-1,1H38c-0.6,0-1-0.4-1-1s0.4-1,1-1h28C66.6,61,67,61.4,67,62z M66,53H38c-0.6,0-1,0.4-1,1s0.4,1,1,1h28  c0.6,0,1-0.4,1-1S66.6,53,66,53z M67,46c0-0.6-0.4-1-1-1H48v2h18C66.6,47,67,46.6,67,46z M67,38c0-0.6-0.4-1-1-1H48v2h18  C66.6,39,67,38.6,67,38z M75,23H48v4h25v46H31V50h-4v25c0,1.1,0.9,2,2,2h46c1.1,0,2-0.9,2-2V25C77,23.9,76.1,23,75,23z M28,28.5  l13.6-3.4v8.5c-0.9-0.6-2-1-3.3-1c-2.9,0-5.3,2-5.3,4.5s2.4,4.5,5.3,4.5c2.9,0,5.3-2,5.3-4.5V18c0-0.671-0.492-1-1.2-1l-15.6,3.9  c-0.4,0.1-0.8,0.5-0.8,1v15.5c-0.9-0.6-2-1-3.3-1c-2.9,0-5.3,2-5.3,4.5s2.4,4.5,5.3,4.5c2.9,0,5.3-2,5.3-4.5V28.5z"/>
</svg>